<mxfile host="app.diagrams.net" agent="Mozilla/5.0 (Windows NT 10.0; Win64; x64) AppleWebKit/537.36 (KHTML, like Gecko) Chrome/136.0.0.0 Safari/537.36" version="27.0.5">
  <diagram name="Page-1" id="X9Ge4oZA_UkVIi6yfmRD">
    <mxGraphModel dx="786" dy="383" grid="1" gridSize="10" guides="1" tooltips="1" connect="1" arrows="1" fold="1" page="1" pageScale="1" pageWidth="827" pageHeight="1169" math="0" shadow="0">
      <root>
        <mxCell id="0" />
        <mxCell id="1" parent="0" />
        <mxCell id="aIzoLomIcetMJ4DEpjG2-3" value="souhaite enregistrer de la donnée (exp : indice de performance global)" style="ellipse;whiteSpace=wrap;html=1;" parent="1" vertex="1">
          <mxGeometry x="320" y="30" width="120" height="80" as="geometry" />
        </mxCell>
        <mxCell id="aIzoLomIcetMJ4DEpjG2-4" value="entreprise" style="ellipse;whiteSpace=wrap;html=1;" parent="1" vertex="1">
          <mxGeometry x="550" y="30" width="120" height="80" as="geometry" />
        </mxCell>
        <mxCell id="aIzoLomIcetMJ4DEpjG2-5" value="" style="shape=flexArrow;endArrow=classic;html=1;rounded=0;" parent="1" edge="1">
          <mxGeometry width="50" height="50" relative="1" as="geometry">
            <mxPoint x="540" y="69.5" as="sourcePoint" />
            <mxPoint x="450" y="69.5" as="targetPoint" />
          </mxGeometry>
        </mxCell>
        <mxCell id="aIzoLomIcetMJ4DEpjG2-6" value="la donnée doit alors être validée par un vérifieur spécifié par l&#39;entreprise et accrédité sur l&#39;application (exp : entreprise d&#39;audit)" style="ellipse;whiteSpace=wrap;html=1;" parent="1" vertex="1">
          <mxGeometry x="270" y="180" width="160" height="80" as="geometry" />
        </mxCell>
        <mxCell id="aIzoLomIcetMJ4DEpjG2-7" value="si validée, la donnée est refactorisée avec un ensemble de métadonnées et est alors encryptée à l&#39;aide d&#39;une clé générée au hasard puis stockée sur un server. La clé est alors stockée sur la blockchain en privé sous forme de nft -&amp;gt; seul l&#39;entreprise, les personnes que cette dernière a accrédité et le vérifieur ont accès à cette clé" style="ellipse;whiteSpace=wrap;html=1;" parent="1" vertex="1">
          <mxGeometry x="510" y="220" width="290" height="150" as="geometry" />
        </mxCell>
        <mxCell id="aIzoLomIcetMJ4DEpjG2-8" value="" style="shape=flexArrow;endArrow=classic;html=1;rounded=0;exitX=0;exitY=0.5;exitDx=0;exitDy=0;" parent="1" source="aIzoLomIcetMJ4DEpjG2-3" edge="1">
          <mxGeometry width="50" height="50" relative="1" as="geometry">
            <mxPoint x="200" y="90" as="sourcePoint" />
            <mxPoint x="240" y="70" as="targetPoint" />
          </mxGeometry>
        </mxCell>
        <mxCell id="aIzoLomIcetMJ4DEpjG2-9" value="selection une catégorie (si elle souhaite ajouter en append) ou en crée une&lt;div&gt;La catégorie a une utilité sur l&#39;application pour s&#39;y retrouver&lt;/div&gt;" style="ellipse;whiteSpace=wrap;html=1;" parent="1" vertex="1">
          <mxGeometry x="60" y="20" width="170" height="90" as="geometry" />
        </mxCell>
        <mxCell id="aIzoLomIcetMJ4DEpjG2-10" value="" style="shape=flexArrow;endArrow=classic;html=1;rounded=0;" parent="1" edge="1">
          <mxGeometry width="50" height="50" relative="1" as="geometry">
            <mxPoint x="140" y="120" as="sourcePoint" />
            <mxPoint x="130" y="180" as="targetPoint" />
          </mxGeometry>
        </mxCell>
        <mxCell id="aIzoLomIcetMJ4DEpjG2-11" value="entre la donnée (peut etre un fichier texte, xml, etc) puis envoie" style="ellipse;whiteSpace=wrap;html=1;" parent="1" vertex="1">
          <mxGeometry x="60" y="180" width="120" height="80" as="geometry" />
        </mxCell>
        <mxCell id="aIzoLomIcetMJ4DEpjG2-12" value="" style="shape=flexArrow;endArrow=classic;html=1;rounded=0;" parent="1" edge="1">
          <mxGeometry width="50" height="50" relative="1" as="geometry">
            <mxPoint x="190" y="220" as="sourcePoint" />
            <mxPoint x="260" y="220" as="targetPoint" />
          </mxGeometry>
        </mxCell>
        <mxCell id="aIzoLomIcetMJ4DEpjG2-14" value="" style="shape=flexArrow;endArrow=classic;html=1;rounded=0;" parent="1" edge="1">
          <mxGeometry width="50" height="50" relative="1" as="geometry">
            <mxPoint x="440" y="230" as="sourcePoint" />
            <mxPoint x="517.6264226208716" y="261.59248829951787" as="targetPoint" />
            <Array as="points">
              <mxPoint x="490" y="250" />
            </Array>
          </mxGeometry>
        </mxCell>
        <mxCell id="aIzoLomIcetMJ4DEpjG2-15" value="" style="shape=flexArrow;endArrow=classic;html=1;rounded=0;" parent="1" edge="1">
          <mxGeometry width="50" height="50" relative="1" as="geometry">
            <mxPoint x="420" y="190" as="sourcePoint" />
            <mxPoint x="460" y="160" as="targetPoint" />
          </mxGeometry>
        </mxCell>
        <mxCell id="aIzoLomIcetMJ4DEpjG2-16" value="si rejetée, l&#39;entreprise est notifiée avec une explication et les coordonnées de contact du vérifieur" style="ellipse;whiteSpace=wrap;html=1;aspect=fixed;" parent="1" vertex="1">
          <mxGeometry x="470" y="100" width="120" height="120" as="geometry" />
        </mxCell>
      </root>
    </mxGraphModel>
  </diagram>
</mxfile>
